<svg width="407" height="407" viewBox="0 0 407 407" fill="none" xmlns="http://www.w3.org/2000/svg">
<g clip-path="url(#clip0_294_135)">
<path d="M320.513 50.875C318.696 50.7748 316.939 50.1892 315.425 49.1792C278.205 29.9944 236.894 20.1031 195.021 20.35C152.625 20.35 110.229 30.525 74.6168 49.1792C72.0936 50.5583 69.1555 50.9747 66.3484 50.3509C63.5413 49.7271 61.056 48.1055 59.3543 45.7875C58.4904 44.4971 57.9332 43.0261 57.7256 41.4872C57.5179 39.9483 57.6653 38.3822 58.1564 36.909C58.6474 35.4358 59.4692 34.0946 60.5587 32.988C61.6481 31.8814 62.9765 31.0389 64.4418 30.525C104.602 9.98476 149.065 -0.726013 194.173 -0.726013C239.281 -0.726013 283.744 9.98476 323.904 30.525C330.688 33.9167 332.383 39.0042 328.992 44.0917C328.363 45.9076 327.233 47.5085 325.733 48.709C324.232 49.9094 322.422 50.6604 320.513 50.875ZM10.1752 157.713C8.37218 157.543 6.63194 156.963 5.08766 156.017C3.76165 155.333 2.60217 154.366 1.69134 153.185C0.780512 152.003 0.140624 150.636 -0.182996 149.18C-0.506616 147.724 -0.506051 146.214 -0.18134 144.758C0.14337 143.302 0.784282 141.935 1.696 140.754C22.9112 111.862 50.8516 88.5782 83.096 72.9208C150.929 40.7 237.417 40.7 305.25 72.9208C337.495 88.5782 365.435 111.862 386.65 140.754C387.926 143.021 388.285 145.689 387.654 148.212C387.024 150.736 385.451 152.921 383.259 154.321C380.926 155.892 378.111 156.584 375.316 156.273C372.521 155.963 369.927 154.67 367.996 152.625C348.948 126.711 323.935 105.769 295.075 91.575C263.243 76.6066 228.501 68.8458 193.325 68.8458C158.15 68.8458 123.407 76.6066 91.5752 91.575C63.3676 106.048 38.9667 126.963 20.3502 152.625C20.3502 156.017 15.2627 157.713 11.871 157.713H10.1752ZM145.842 401.913C143.451 402.166 141.048 401.565 139.058 400.217C118.708 383.258 108.533 371.387 94.9668 345.95C79.7043 320.512 72.921 289.988 72.921 257.767C72.921 196.717 127.188 147.537 195.021 147.537C262.854 147.537 317.121 198.413 317.121 257.767C317.121 262.854 312.033 267.942 305.25 267.942C300.163 267.942 295.075 262.854 295.075 257.767C295.075 206.892 249.288 167.887 193.325 167.887C139.058 167.887 93.271 208.587 93.271 257.767C92.9401 285.123 99.9686 312.066 113.621 335.775C127.188 359.517 137.363 369.692 154.321 386.65C155.99 388.515 156.912 390.931 156.912 393.433C156.912 395.936 155.99 398.351 154.321 400.217C151.808 401.828 148.781 402.433 145.842 401.913ZM300.163 364.604C274.725 364.604 252.679 359.517 232.329 347.646C216.943 338.186 204.207 324.98 195.31 309.262C186.413 293.544 181.646 275.827 181.454 257.767C181.454 252.679 186.542 247.592 193.325 247.592C198.413 247.592 203.5 252.679 203.5 257.767C203.589 272.564 207.55 287.08 214.987 299.873C222.425 312.665 233.081 323.289 245.896 330.687C261.159 339.167 279.813 344.254 300.163 344.254C307.543 344.223 314.911 343.656 322.208 342.558C323.658 342.036 325.207 341.849 326.739 342.013C328.271 342.176 329.745 342.686 331.052 343.502C332.358 344.319 333.462 345.421 334.28 346.726C335.099 348.032 335.61 349.506 335.775 351.038C335.775 356.125 332.383 361.212 327.296 362.908C318.318 364.262 309.239 364.829 300.163 364.604ZM257.767 407C256.641 407.142 255.501 407.142 254.375 407C220.459 396.825 198.413 384.954 174.671 364.604C159.733 351.101 147.79 334.617 139.611 316.216C131.433 297.814 127.201 277.904 127.188 257.767C127.188 223.85 157.713 198.413 195.021 198.413C228.938 198.413 259.463 223.85 259.463 257.767C259.463 279.813 279.813 296.771 305.25 296.771C330.688 296.771 349.342 279.813 349.342 257.767C349.342 181.454 279.813 118.708 193.325 118.708C132.275 118.708 74.6168 150.929 50.8752 200.108C42.396 217.067 37.3085 235.721 37.3085 257.767C37.3085 274.725 39.0043 298.467 52.571 330.687C53.0986 332.018 53.3394 333.446 53.2777 334.876C53.216 336.306 52.8532 337.707 52.2129 338.988C51.5727 340.268 50.6695 341.399 49.5623 342.307C48.4551 343.214 47.1689 343.878 45.7877 344.254C40.7002 345.95 33.9168 344.254 32.221 337.471C22.046 312.033 15.2627 286.596 15.2627 257.767C15.2627 234.025 22.046 210.283 32.221 191.629C59.3543 135.667 123.796 98.3583 193.325 98.3583C291.684 98.3583 373.083 169.583 373.083 257.767C373.083 291.683 344.254 317.121 305.25 317.121C271.333 317.121 240.809 289.988 240.809 257.767C240.809 235.721 220.459 218.762 195.021 218.762C171.279 218.762 150.929 235.721 150.929 257.767C150.929 291.683 164.496 325.6 191.629 349.342C211.039 367.791 235.055 380.677 261.158 386.65C267.942 388.346 271.334 393.433 269.638 398.521C267.942 403.608 262.854 407 259.463 407H257.767Z" fill="#000080"/>
</g>
<defs>
<clipPath id="clip0_294_135">
<rect width="407" height="407" fill="white"/>
</clipPath>
</defs>
</svg>
