<svg width="107" height="39" viewBox="0 0 107 39" fill="none" xmlns="http://www.w3.org/2000/svg">
<g clip-path="url(#clip0_5_33)">
<path d="M8.74199 32.8456L0.942881 19.337C0.642969 18.8176 0.485077 18.2284 0.485077 17.6286C0.485077 17.0289 0.642969 16.4397 0.942881 15.9202L8.74169 2.4119C9.04157 1.89243 9.47292 1.46107 9.99238 1.16119C10.5118 0.8613 11.1011 0.703455 11.7009 0.703522H27.2991C27.8989 0.703507 28.4881 0.861377 29.0075 1.16126C29.5269 1.46115 29.9582 1.89248 30.258 2.4119L38.0571 15.9205C38.357 16.4399 38.5149 17.0292 38.5149 17.6289C38.5149 18.2287 38.357 18.8179 38.0571 19.3373L30.258 32.8456C29.9582 33.3651 29.5269 33.7964 29.0075 34.0963C28.4881 34.3962 27.8989 34.554 27.2991 34.554H11.7009C11.1011 34.554 10.5119 34.3962 9.99255 34.0963C9.47315 33.7964 9.04184 33.3651 8.74199 32.8456Z" fill="url(#paint0_linear_5_33)"/>
<path opacity="0.07" d="M24.2974 10.4822L38.5723 24.8169L28.7249 38.2967L14.7023 25.6327L10.8286 18.4409L12.3827 18.6661L10.5876 16.843L15.489 11.028L22.9257 9.68777L24.161 10.9229L24.2974 10.4822Z" fill="black"/>
<path d="M28.4133 17.6387L24.2974 10.4823L20.1816 17.6387L24.2974 24.7952L28.4133 17.6387Z" fill="#DAE7FC"/>
<path d="M10.5867 18.2332L14.6877 25.3636H22.9111L18.8101 18.2332H10.5867Z" fill="#B6CFF8"/>
<path d="M18.7572 17.0445L22.9242 9.91388H14.7005L10.5867 17.0445H18.7572Z" fill="white"/>
</g>
<path d="M53.2625 28.375C51.4625 28.375 49.9292 27.9833 48.6625 27.2C47.3958 26.4083 46.425 25.3083 45.75 23.9C45.0833 22.4917 44.75 20.8583 44.75 19C44.75 17.1417 45.0833 15.5083 45.75 14.1C46.425 12.6917 47.3958 11.5958 48.6625 10.8125C49.9292 10.0208 51.4625 9.625 53.2625 9.625C55.3375 9.625 57.0542 10.15 58.4125 11.2C59.7792 12.25 60.7292 13.6625 61.2625 15.4375L58.6125 16.15C58.2625 14.8917 57.6375 13.9042 56.7375 13.1875C55.8458 12.4708 54.6875 12.1125 53.2625 12.1125C51.9875 12.1125 50.925 12.4 50.075 12.975C49.225 13.55 48.5833 14.3542 48.15 15.3875C47.725 16.4208 47.5125 17.625 47.5125 19C47.5042 20.375 47.7125 21.5792 48.1375 22.6125C48.5708 23.6458 49.2125 24.45 50.0625 25.025C50.9208 25.6 51.9875 25.8875 53.2625 25.8875C54.6875 25.8875 55.8458 25.5292 56.7375 24.8125C57.6375 24.0875 58.2625 23.1 58.6125 21.85L61.2625 22.5625C60.7292 24.3375 59.7792 25.75 58.4125 26.8C57.0542 27.85 55.3375 28.375 53.2625 28.375ZM67.8242 28.375C66.8242 28.375 65.9867 28.1917 65.3117 27.825C64.6367 27.45 64.1242 26.9583 63.7742 26.35C63.4326 25.7333 63.2617 25.0583 63.2617 24.325C63.2617 23.6417 63.3826 23.0417 63.6242 22.525C63.8659 22.0083 64.2242 21.5708 64.6992 21.2125C65.1742 20.8458 65.7576 20.55 66.4492 20.325C67.0492 20.15 67.7284 19.9958 68.4867 19.8625C69.2451 19.7292 70.0409 19.6042 70.8742 19.4875C71.7159 19.3708 72.5492 19.2542 73.3742 19.1375L72.4242 19.6625C72.4409 18.6042 72.2159 17.8208 71.7492 17.3125C71.2909 16.7958 70.4992 16.5375 69.3742 16.5375C68.6659 16.5375 68.0159 16.7042 67.4242 17.0375C66.8326 17.3625 66.4201 17.9042 66.1867 18.6625L63.7492 17.9125C64.0826 16.7542 64.7159 15.8333 65.6492 15.15C66.5909 14.4667 67.8409 14.125 69.3992 14.125C70.6076 14.125 71.6576 14.3333 72.5492 14.75C73.4492 15.1583 74.1076 15.8083 74.5242 16.7C74.7409 17.1417 74.8742 17.6083 74.9242 18.1C74.9742 18.5917 74.9992 19.1208 74.9992 19.6875V28H72.6867V24.9125L73.1367 25.3125C72.5784 26.3458 71.8659 27.1167 70.9992 27.625C70.1409 28.125 69.0826 28.375 67.8242 28.375ZM68.2867 26.2375C69.0284 26.2375 69.6659 26.1083 70.1992 25.85C70.7326 25.5833 71.1617 25.2458 71.4867 24.8375C71.8117 24.4292 72.0242 24.0042 72.1242 23.5625C72.2659 23.1625 72.3451 22.7125 72.3617 22.2125C72.3867 21.7125 72.3992 21.3125 72.3992 21.0125L73.2492 21.325C72.4242 21.45 71.6742 21.5625 70.9992 21.6625C70.3242 21.7625 69.7117 21.8625 69.1617 21.9625C68.6201 22.0542 68.1367 22.1667 67.7117 22.3C67.3534 22.425 67.0326 22.575 66.7492 22.75C66.4742 22.925 66.2534 23.1375 66.0867 23.3875C65.9284 23.6375 65.8492 23.9417 65.8492 24.3C65.8492 24.65 65.9367 24.975 66.1117 25.275C66.2867 25.5667 66.5534 25.8 66.9117 25.975C67.2701 26.15 67.7284 26.2375 68.2867 26.2375ZM82.0576 28.375C81.0576 28.375 80.2201 28.1917 79.5451 27.825C78.8701 27.45 78.3576 26.9583 78.0076 26.35C77.666 25.7333 77.4951 25.0583 77.4951 24.325C77.4951 23.6417 77.616 23.0417 77.8576 22.525C78.0993 22.0083 78.4576 21.5708 78.9326 21.2125C79.4076 20.8458 79.991 20.55 80.6826 20.325C81.2826 20.15 81.9618 19.9958 82.7201 19.8625C83.4785 19.7292 84.2743 19.6042 85.1076 19.4875C85.9493 19.3708 86.7826 19.2542 87.6076 19.1375L86.6576 19.6625C86.6743 18.6042 86.4493 17.8208 85.9826 17.3125C85.5243 16.7958 84.7326 16.5375 83.6076 16.5375C82.8993 16.5375 82.2493 16.7042 81.6576 17.0375C81.066 17.3625 80.6535 17.9042 80.4201 18.6625L77.9826 17.9125C78.316 16.7542 78.9493 15.8333 79.8826 15.15C80.8243 14.4667 82.0743 14.125 83.6326 14.125C84.841 14.125 85.891 14.3333 86.7826 14.75C87.6826 15.1583 88.341 15.8083 88.7576 16.7C88.9743 17.1417 89.1076 17.6083 89.1576 18.1C89.2076 18.5917 89.2326 19.1208 89.2326 19.6875V28H86.9201V24.9125L87.3701 25.3125C86.8118 26.3458 86.0993 27.1167 85.2326 27.625C84.3743 28.125 83.316 28.375 82.0576 28.375ZM82.5201 26.2375C83.2618 26.2375 83.8993 26.1083 84.4326 25.85C84.966 25.5833 85.3951 25.2458 85.7201 24.8375C86.0451 24.4292 86.2576 24.0042 86.3576 23.5625C86.4993 23.1625 86.5785 22.7125 86.5951 22.2125C86.6201 21.7125 86.6326 21.3125 86.6326 21.0125L87.4826 21.325C86.6576 21.45 85.9076 21.5625 85.2326 21.6625C84.5576 21.7625 83.9451 21.8625 83.3951 21.9625C82.8535 22.0542 82.3701 22.1667 81.9451 22.3C81.5868 22.425 81.266 22.575 80.9826 22.75C80.7076 22.925 80.4868 23.1375 80.3201 23.3875C80.1618 23.6375 80.0826 23.9417 80.0826 24.3C80.0826 24.65 80.1701 24.975 80.3451 25.275C80.5201 25.5667 80.7868 25.8 81.1451 25.975C81.5035 26.15 81.9618 26.2375 82.5201 26.2375ZM99.0035 28.375C97.7118 28.375 96.5452 28.1542 95.5035 27.7125C94.4702 27.2625 93.616 26.625 92.941 25.8C92.2743 24.9667 91.841 23.9792 91.641 22.8375L94.366 22.425C94.641 23.525 95.216 24.3833 96.091 25C96.966 25.6083 97.9868 25.9125 99.1535 25.9125C99.8785 25.9125 100.545 25.8 101.154 25.575C101.762 25.3417 102.249 25.0125 102.616 24.5875C102.991 24.1542 103.179 23.6375 103.179 23.0375C103.179 22.7125 103.12 22.425 103.004 22.175C102.895 21.925 102.741 21.7083 102.541 21.525C102.349 21.3333 102.112 21.1708 101.829 21.0375C101.554 20.8958 101.249 20.775 100.916 20.675L96.3035 19.3125C95.8535 19.1792 95.3952 19.0083 94.9285 18.8C94.4618 18.5833 94.0327 18.3042 93.641 17.9625C93.2577 17.6125 92.9452 17.1833 92.7035 16.675C92.4618 16.1583 92.341 15.5333 92.341 14.8C92.341 13.6917 92.6243 12.7542 93.191 11.9875C93.766 11.2125 94.541 10.6292 95.516 10.2375C96.491 9.8375 97.5827 9.6375 98.791 9.6375C100.008 9.65417 101.095 9.87083 102.054 10.2875C103.02 10.7042 103.82 11.3042 104.454 12.0875C105.095 12.8625 105.537 13.8042 105.779 14.9125L102.979 15.3875C102.854 14.7125 102.587 14.1333 102.179 13.65C101.77 13.1583 101.27 12.7833 100.679 12.525C100.087 12.2583 99.4452 12.1208 98.7535 12.1125C98.0868 12.0958 97.4743 12.1958 96.916 12.4125C96.366 12.6292 95.9243 12.9333 95.591 13.325C95.266 13.7167 95.1035 14.1667 95.1035 14.675C95.1035 15.175 95.2493 15.5792 95.541 15.8875C95.8327 16.1958 96.191 16.4417 96.616 16.625C97.0493 16.8 97.4785 16.9458 97.9035 17.0625L101.229 18C101.645 18.1167 102.116 18.275 102.641 18.475C103.174 18.6667 103.687 18.9375 104.179 19.2875C104.679 19.6375 105.091 20.1042 105.416 20.6875C105.741 21.2625 105.904 21.9875 105.904 22.8625C105.904 23.7708 105.72 24.5708 105.354 25.2625C104.987 25.9458 104.483 26.5208 103.841 26.9875C103.208 27.4458 102.474 27.7917 101.641 28.025C100.808 28.2583 99.9285 28.375 99.0035 28.375Z" fill="#585858"/>
<defs>
<linearGradient id="paint0_linear_5_33" x1="19.5" y1="0.703522" x2="19.5" y2="34.5014" gradientUnits="userSpaceOnUse">
<stop stop-color="#000080"/>
<stop offset="1" stop-color="#003CA0"/>
</linearGradient>
<clipPath id="clip0_5_33">
<rect width="39" height="39" fill="white"/>
</clipPath>
</defs>
</svg>
